<?xml version="1.0" standalone="no"?>
<!DOCTYPE svg PUBLIC "-//W3C//DTD SVG 20010904//EN"
 "http://www.w3.org/TR/2001/REC-SVG-20010904/DTD/svg10.dtd">
<svg version="1.0" xmlns="http://www.w3.org/2000/svg"
 width="800.000000pt" height="800.000000pt" viewBox="0 0 800.000000 800.000000"
 preserveAspectRatio="xMidYMid meet">
<metadata>
Created by potrace 1.14, written by Peter Selinger 2001-2017
</metadata>
<g transform="translate(0.000000,800.000000) scale(0.100000,-0.100000)"
fill="#000000" stroke="none">
<path d="M1846 5863 c-3 -3 -148 -16 -198 -17 -16 -1 -28 -3 -28 -6 0 -4 -10
-6 -22 -7 -21 0 -54 -6 -118 -18 -14 -3 -34 -7 -45 -9 -190 -38 -423 -132
-578 -233 -83 -53 -195 -163 -257 -253 -25 -36 -44 -67 -44 -70 2 -8 -9 -34
-16 -40 -7 -6 -33 -76 -55 -150 -15 -51 -19 -75 -31 -170 -2 -19 -4 -87 -4
-150 0 -170 7 -221 48 -341 61 -179 155 -302 337 -439 79 -59 283 -170 314
-170 6 0 19 -4 29 -9 18 -10 105 -39 138 -45 10 -2 33 -10 49 -16 17 -7 39
-13 50 -15 11 -2 65 -16 120 -30 55 -15 105 -28 110 -29 6 -2 28 -6 50 -10 22
-5 65 -14 95 -22 30 -7 71 -16 90 -19 19 -3 51 -10 70 -15 19 -5 49 -11 65
-14 139 -24 363 -103 428 -150 80 -58 95 -196 30 -268 -22 -25 -95 -62 -148
-76 -149 -39 -530 -34 -620 7 -11 6 -42 19 -68 30 -26 11 -60 33 -76 48 -26
26 -86 123 -76 123 2 0 0 12 -5 26 -6 14 -13 49 -16 77 -6 55 -11 89 -13 97
-2 9 -1046 5 -1052 -4 -14 -18 -1 -218 22 -336 22 -115 96 -293 161 -389 34
-49 183 -201 198 -201 5 0 15 -7 23 -15 14 -13 165 -92 247 -128 65 -29 208
-73 335 -103 17 -4 35 -8 40 -10 10 -2 85 -14 120 -19 11 -2 34 -6 50 -8 34
-6 119 -15 220 -24 86 -7 468 -7 550 0 84 8 165 17 200 23 17 3 39 7 50 9 143
24 336 90 471 160 91 47 117 63 188 115 48 34 185 180 218 231 51 80 90 149
82 149 -3 0 -2 6 4 13 11 14 63 177 56 177 -3 0 0 9 6 19 16 30 22 92 25 271
5 247 -26 378 -129 539 -43 67 -171 190 -260 250 -76 52 -230 135 -251 136
-12 0 -116 35 -130 44 -11 6 -28 10 -57 13 -10 1 -18 5 -18 8 0 4 -6 7 -12 7
-7 0 -58 13 -113 28 -55 14 -107 28 -115 30 -8 2 -54 12 -102 24 -48 11 -98
22 -110 25 -49 9 -218 47 -318 72 -58 14 -114 27 -125 30 -41 8 -188 64 -219
83 -41 27 -81 70 -91 101 -11 35 -13 120 -3 120 5 0 7 3 4 8 -4 8 61 87 73 87
3 0 22 10 41 21 19 12 49 25 65 29 44 12 45 12 48 15 15 12 329 19 367 8 8 -3
29 -8 45 -12 35 -9 124 -54 143 -73 7 -7 18 -13 23 -13 6 0 8 -4 5 -8 -3 -5 4
-16 15 -26 29 -24 67 -113 70 -161 2 -22 6 -45 11 -51 4 -6 34 -12 65 -14 134
-7 940 -4 966 4 27 8 27 9 22 75 -8 108 -14 155 -29 226 -8 39 -49 150 -74
200 -61 121 -191 263 -314 342 -81 52 -119 72 -243 128 -40 19 -136 56 -155
61 -8 2 -40 10 -70 19 -30 8 -71 18 -90 21 -47 8 -65 12 -65 14 0 3 -38 9 -86
15 -25 3 -55 7 -66 10 -77 14 -525 30 -537 18z"/>
<path d="M5165 5740 c-58 -156 -79 -213 -127 -345 -28 -77 -51 -145 -52 -151
-1 -7 -8 -20 -16 -30 -8 -9 -13 -18 -11 -18 4 -1 -6 -41 -19 -71 -15 -38 -100
-271 -100 -277 0 -3 -8 -23 -17 -44 -9 -22 -18 -43 -19 -49 -1 -5 -14 -41 -29
-80 -14 -38 -28 -78 -30 -87 -2 -9 -9 -26 -15 -37 -6 -12 -8 -21 -4 -21 3 0 2
-6 -3 -12 -6 -7 -16 -31 -23 -53 -7 -22 -18 -53 -25 -70 -18 -43 -75 -197 -80
-215 -6 -24 -65 -183 -73 -194 -3 -6 -7 -17 -8 -26 -1 -8 -13 -43 -27 -77 -14
-35 -23 -63 -20 -63 3 0 1 -6 -4 -12 -6 -7 -25 -56 -43 -108 -18 -52 -36 -100
-41 -106 -5 -6 -6 -14 -3 -17 3 -3 -1 -16 -10 -29 -9 -12 -16 -28 -16 -34 0
-6 -8 -29 -17 -50 -9 -22 -18 -50 -20 -63 -2 -13 -13 -41 -24 -62 -11 -22 -17
-39 -15 -39 3 0 -6 -25 -19 -55 -14 -30 -23 -55 -20 -55 2 0 -2 -12 -10 -27
-8 -15 -12 -30 -9 -35 3 -4 0 -8 -5 -8 -6 0 -10 -3 -9 -7 3 -8 -5 -30 -62
-183 -16 -41 -40 -109 -55 -150 -15 -41 -30 -84 -35 -95 -5 -11 -27 -72 -50
-135 -22 -63 -48 -135 -57 -160 -23 -63 -24 -87 -5 -92 14 -3 911 -2 1088 1
l41 1 24 83 c13 45 24 84 24 87 3 16 37 128 45 145 5 11 12 32 14 47 2 14 9
35 15 47 6 11 12 31 13 45 1 14 7 27 13 29 25 9 1215 1 1224 -8 5 -5 25 -64
44 -130 70 -239 99 -330 107 -339 5 -5 270 -9 591 -10 472 -1 582 1 587 12 5
15 -7 56 -73 232 -25 69 -47 130 -49 135 -2 6 -6 19 -10 30 -5 11 -16 43 -26
70 -10 28 -30 82 -44 120 -128 346 -188 513 -191 531 -1 11 -8 29 -14 40 -6
10 -56 145 -112 299 -55 154 -104 289 -109 300 -4 11 -20 54 -35 95 -15 41
-33 91 -40 110 -22 56 -87 234 -90 245 -1 6 -5 17 -8 25 -4 8 -41 110 -82 225
-42 116 -79 217 -82 225 -4 8 -7 17 -8 20 -1 3 -7 18 -13 33 -7 16 -12 34 -12
41 0 7 -3 16 -7 19 -5 6 -39 92 -47 122 -2 6 -6 17 -9 25 -3 8 -17 47 -31 85
-14 39 -31 84 -37 100 -7 17 -13 32 -13 35 -2 5 -74 206 -83 230 -4 8 -14 35
-23 60 l-16 44 -657 1 -657 0 -25 -65z m687 -956 c11 -46 23 -90 68 -239 23
-77 43 -147 45 -155 2 -8 12 -44 23 -80 30 -94 65 -213 68 -230 2 -8 19 -67
39 -130 20 -63 38 -126 41 -140 3 -14 7 -29 8 -35 1 -5 15 -50 30 -98 16 -49
25 -91 21 -95 -3 -4 -173 -7 -376 -7 -203 0 -369 0 -369 0 0 0 9 32 19 70 10
39 35 124 56 190 20 66 38 127 40 135 2 8 22 76 45 150 22 74 42 142 45 151 5
23 17 64 65 219 23 74 43 142 45 150 13 51 47 165 51 172 10 16 28 2 36 -28z"/>
</g>
</svg>
