<?xml version="1.0" standalone="no"?>
<!DOCTYPE svg PUBLIC "-//W3C//DTD SVG 20010904//EN"
 "http://www.w3.org/TR/2001/REC-SVG-20010904/DTD/svg10.dtd">
<svg version="1.0" xmlns="http://www.w3.org/2000/svg"
 width="500.000000pt" height="500.000000pt" viewBox="0 0 500.000000 500.000000"
 preserveAspectRatio="xMidYMid meet">
<metadata>
Created by potrace 1.14, written by Peter Selinger 2001-2017
</metadata>
<g transform="translate(0.000000,500.000000) scale(0.100000,-0.100000)"
fill="#000000" stroke="none">
<path d="M2417 4995 c-1 -1 -56 -5 -122 -8 -66 -4 -131 -9 -145 -12 -45 -9
-74 -14 -110 -20 -19 -2 -80 -16 -135 -30 -55 -14 -111 -28 -124 -31 -152 -33
-484 -191 -676 -322 -157 -107 -234 -170 -370 -307 -165 -166 -185 -191 -338
-415 -59 -86 -184 -331 -230 -450 -59 -154 -125 -412 -145 -570 -4 -30 -7
-188 -6 -350 0 -259 3 -309 22 -405 60 -310 117 -477 247 -730 72 -139 136
-240 227 -360 196 -258 525 -542 768 -666 36 -18 73 -39 83 -48 9 -8 17 -11
17 -6 0 4 6 3 13 -3 18 -16 191 -90 287 -124 100 -36 378 -101 505 -119 100
-14 436 -18 560 -6 88 8 268 39 355 61 30 8 83 21 117 30 149 37 479 190 637
294 380 252 670 573 865 957 42 83 82 166 90 185 8 19 22 53 31 75 22 49 51
146 85 285 25 101 29 121 40 193 3 17 7 43 10 57 30 172 26 536 -10 769 -16
105 -94 395 -125 466 -10 22 -30 69 -45 105 -32 77 -134 274 -167 323 -13 19
-40 60 -61 92 -21 31 -42 62 -47 68 -6 7 -29 37 -52 67 -160 209 -363 393
-625 569 -86 57 -380 202 -478 236 -44 15 -89 31 -100 36 -29 13 -302 77 -360
84 -28 4 -61 8 -75 11 -66 11 -402 27 -413 19z m-827 -1439 c13 -3 42 -8 65
-11 96 -14 269 -81 360 -140 144 -93 233 -255 238 -432 l2 -58 -300 0 -300 0
-8 47 c-13 71 -71 132 -145 154 -54 15 -181 16 -249 0 -72 -16 -123 -65 -123
-118 0 -49 23 -84 71 -109 44 -22 202 -66 269 -75 25 -3 61 -9 80 -14 34 -9
51 -13 115 -26 78 -17 255 -72 305 -96 191 -91 302 -219 335 -385 11 -55 5
-213 -9 -276 -32 -135 -77 -219 -164 -304 -116 -114 -293 -187 -532 -219 -50
-6 -344 -7 -375 0 -11 2 -49 7 -85 11 -115 12 -274 54 -367 96 -61 27 -159 97
-198 140 -79 89 -129 224 -142 386 l-6 73 69 1 c264 2 537 0 541 -5 3 -3 7
-24 9 -47 6 -59 36 -122 72 -147 91 -65 430 -65 499 0 46 43 41 123 -11 163
-34 26 -171 67 -436 130 -166 40 -338 93 -400 125 -46 23 -135 94 -185 148
-97 102 -140 284 -112 478 19 141 101 270 222 354 96 66 310 139 461 158 75
10 394 8 434 -2z m2396 -161 c29 -77 56 -151 62 -165 6 -14 13 -36 17 -50 4
-14 49 -137 100 -275 52 -137 108 -293 126 -345 17 -52 36 -106 42 -120 5 -14
11 -29 13 -35 2 -5 30 -82 62 -170 33 -88 104 -279 157 -425 54 -146 100 -270
102 -276 3 -8 -96 -10 -339 -10 l-342 1 -13 35 c-7 19 -26 81 -43 138 -17 56
-36 102 -43 103 -7 0 -165 1 -351 2 l-340 1 -17 -55 c-10 -30 -29 -93 -43
-140 l-26 -86 -330 -1 c-193 0 -330 4 -330 9 0 5 4 17 9 27 10 19 121 320 146
397 20 59 151 416 170 460 7 17 29 78 49 138 21 59 53 149 72 200 19 50 58
155 85 232 28 77 85 232 127 345 l76 205 375 0 376 0 51 -140z"/>
<path d="M3537 2953 c-3 -10 -23 -76 -45 -148 -22 -71 -54 -179 -71 -240 -17
-60 -41 -144 -54 -185 -13 -41 -27 -86 -30 -100 l-6 -25 209 0 c114 0 211 3
215 7 4 3 -10 60 -30 125 -20 65 -38 123 -39 128 -1 6 -10 37 -20 70 -10 33
-20 69 -22 80 -2 11 -13 52 -25 90 -11 39 -30 103 -41 143 -21 73 -31 86 -41
55z"/>
</g>
</svg>
